<?xml version="1.0" encoding="utf-8"?>
<!-- Generator: Adobe Illustrator 25.4.1, SVG Export Plug-In . SVG Version: 6.00 Build 0)  -->
<svg version="1.1" id="Layer_1" xmlns="http://www.w3.org/2000/svg" xmlns:xlink="http://www.w3.org/1999/xlink" x="0px" y="0px"
	 viewBox="0 0 1038.7 1012.7" style="enable-background:new 0 0 1038.7 1012.7;" xml:space="preserve">
<style type="text/css">
	.st0{fill:#808080;}
</style>
<path class="st0" d="M854.7,0H183.9C82.4,0,0,82.3,0,183.9c0,0,0,0,0,0v644.8c0,101.6,82.3,183.9,183.9,183.9c0,0,0,0,0,0h670.8
	c101.6,0,183.9-82.3,183.9-183.9c0,0,0,0,0,0V183.9C1038.7,82.4,956.3,0,854.7,0C854.7,0,854.7,0,854.7,0z M366.9,770.1
	c-120.5,0.6-218.6-96.6-219.2-217.1s96.6-218.6,217.1-219.2c53.8-0.3,105.8,19.4,146,55.1l1.1,0.9l90.4,92.7c15,15.4,14.6,40-0.8,55
	c-15.4,15-40,14.6-55-0.8l0,0l-89.7-92c-58.2-50.1-146.1-43.6-196.3,14.7c-21.7,25.2-33.6,57.3-33.7,90.5c0,76.4,65.1,141,142.1,141
	l17.7,0.1c25.6,35.4,97.4,79.2,97.4,79.2L366.9,770.1z M813.8,691.6c-48.8,51-116.2,79.9-186.8,80c-66.9,0-135.2-29.9-187.5-82.1
	L320,569.9c-15-15.4-14.7-40,0.6-55.1c7.3-7.1,17.1-11.1,27.2-11.1c10.5-0.1,20.6,4.2,27.9,11.7l118.6,119
	c37.7,37.8,86,59.4,132.6,59.4c49.7-0.1,97.2-20.6,131.3-56.8c35-36,54.6-84.3,54.5-134.5c-0.1-103-83.6-186.3-186.5-186.4
	c-39.2,0-71.7,7.6-103.3,30.1c-0.3-0.3-8.9-6-18.6-11.9c-6-3.7-12.5-7.3-17.6-10c-5.7-3.1-21.9-11-31.6-15c-2.4-1-5.5-2.1-6.8-2.6
	l0.3-0.1c49.2-46,110.3-68.3,177.6-68.3c145.9,0.1,264.2,118.4,264.4,264.3C890.7,573.2,863.1,641.1,813.8,691.6L813.8,691.6z"/>
</svg>
